<svg preserveAspectRatio="none" overflow="visible" style="display: block;" width="36" height="36" viewBox="0 0 36 36" fill="none" xmlns="http://www.w3.org/2000/svg">
<g id="Logo - White theme">
<path id="Vector" d="M16.7842 3.92729C17.4301 3.28121 18.4777 3.28117 19.1236 3.92729L21.3225 6.12695C21.7355 6.54016 21.9755 7.14417 21.7893 7.69805C21.6915 7.98904 21.5526 8.12912 21.2358 8.35029C21.0512 8.47923 20.8188 8.52026 20.5989 8.47148C20.3683 8.42028 20.1608 8.29977 19.9765 8.15209C18.6791 7.11249 16.781 7.19304 15.5765 8.39338L8.40971 15.5363C7.11211 16.8296 7.11214 18.9316 8.40971 20.2248L13.7104 25.508C14.3304 26.1257 15.17 26.4731 16.045 26.4731H19.7778C20.6528 26.473 21.4925 26.1258 22.1124 25.508L27.413 20.2248C28.7104 18.9316 28.7103 16.8296 27.413 15.5363L27.1427 15.267C26.9224 15.0473 26.7158 14.8026 26.6232 14.5055C26.331 13.5671 26.9619 12.9967 27.8147 13.1018C28.3098 13.1629 28.7063 13.5132 29.059 13.8661L31.9885 16.7966C32.6341 17.4428 32.6343 18.4908 31.9885 19.1368L19.1236 32.0062C18.4778 32.6522 17.4302 32.652 16.7842 32.0062L3.91933 19.1368C3.2734 18.4907 3.2734 17.4428 3.91933 16.7966L16.7842 3.92729Z" fill="white"/>
<path id="Vector_2" d="M24.4128 1.24519C24.4128 10.4084 24.413 10.4084 33.7589 10.4084C24.413 10.4084 24.4128 10.4084 24.4128 19.5715V19.1378C24.4128 10.4088 24.4129 10.4084 14.7751 10.4084C24.4127 10.4084 24.4128 10.4082 24.4128 1.67949V1.24519Z" fill="white"/>
<path id="Vector_3" d="M28.1549 1.78111C28.1718 5.42647 28.4424 5.42647 32.7695 5.42647C28.1537 5.42647 28.1533 5.42647 28.1533 9.85103V9.64147C28.1533 5.42657 28.1535 5.42647 23.3937 5.42647C28.1535 5.42647 28.1533 5.42638 28.1533 1.21148L28.1549 1.78111Z" fill="white"/>
<path id="Vector_4" d="M1.00035 16.7382C0.325272 17.4134 0.304057 18.4949 0.936869 19.1954L1.00035 19.2622L5.59638 23.8582C5.68963 23.9515 5.68963 24.1027 5.59638 24.1959C5.50314 24.2892 5.35196 24.2892 5.25871 24.1959L0.662343 19.5999C-0.220886 18.7165 -0.220731 17.2838 0.662508 16.4004L5.33984 11.7227C5.43317 11.6294 5.5845 11.6294 5.67784 11.7227C5.77118 11.816 5.77118 11.9674 5.67784 12.0607L1.00035 16.7382Z" fill="white"/>
<path id="Vector_5" d="M19.5998 35.3377C18.7441 36.1934 17.3729 36.2197 16.4849 35.4178L16.4005 35.3377L11.7228 30.66C11.6296 30.5668 11.6296 30.4156 11.7228 30.3224C11.8161 30.2291 11.9673 30.2291 12.0605 30.3224L16.7382 35L16.8046 35.0632C17.5053 35.6959 18.5872 35.675 19.2622 35L23.9398 30.3224C24.0331 30.2291 24.1842 30.2291 24.2775 30.3224C24.3707 30.4156 24.3707 30.5668 24.2775 30.66L19.5998 35.3377Z" fill="white"/>
<path id="Vector_6" d="M35.3378 16.4004C36.2206 17.2838 36.2209 18.7166 35.3377 19.5999L30.7416 24.1959C30.6484 24.2891 30.4972 24.2891 30.4039 24.1959C30.3107 24.1027 30.3107 23.9515 30.4039 23.8582L35 19.2622C35.6966 18.5655 35.6966 17.4349 35 16.7379L31.585 13.3232C31.4917 13.23 31.4917 13.0788 31.585 12.9855C31.6782 12.8923 31.8294 12.8923 31.9227 12.9855L35.3378 16.4004Z" fill="white"/>
<path id="Vector_7" d="M22.1209 3.5213C22.0276 3.61459 21.8764 3.61459 21.7831 3.52129L19.2622 1.00004C18.5652 0.303263 17.4348 0.303443 16.738 1.0002L12.142 5.59624C12.0487 5.68949 11.8975 5.68949 11.8043 5.59624C11.711 5.503 11.711 5.35181 11.8043 5.25857L16.4003 0.662527C17.2837 -0.220723 18.7164 -0.220907 19.5998 0.662362L22.1209 3.18347C22.2142 3.27676 22.2142 3.42801 22.1209 3.5213Z" fill="white"/>
</g>
</svg>
